<?xml version="1.0" standalone="no"?>
<!DOCTYPE svg PUBLIC "-//W3C//DTD SVG 20010904//EN"
 "http://www.w3.org/TR/2001/REC-SVG-20010904/DTD/svg10.dtd">
<svg version="1.0" xmlns="http://www.w3.org/2000/svg"
 width="640.000000pt" height="640.000000pt" viewBox="0 0 640.000000 640.000000"
 preserveAspectRatio="xMidYMid meet">
<metadata>
Created by potrace 1.14, written by Peter Selinger 2001-2017
</metadata>
<g transform="translate(0.000000,640.000000) scale(0.100000,-0.100000)"
fill="#000000" stroke="none">
<path d="M3600 4208 c-12 -4 -31 -10 -43 -12 -41 -7 -112 -39 -162 -72 -59
-38 -155 -132 -155 -151 0 -7 -4 -13 -9 -13 -4 0 -20 -27 -35 -60 -15 -32 -30
-61 -35 -64 -4 -3 -22 27 -40 65 -38 84 -39 86 -118 165 -61 61 -152 116 -218
132 -35 8 -210 8 -240 0 -11 -3 -35 -9 -52 -13 -18 -4 -33 -12 -33 -18 0 -6
-3 -7 -6 -4 -7 7 -59 -19 -82 -40 -7 -7 -16 -13 -20 -13 -9 -1 -92 -77 -92
-85 0 -3 -9 -15 -19 -26 -23 -25 -73 -126 -96 -194 -35 -103 -34 -270 0 -390
19 -63 61 -152 82 -173 7 -7 13 -17 13 -21 0 -10 104 -121 113 -121 3 0 17
-11 31 -23 21 -19 38 -24 91 -26 80 -3 103 4 116 32 5 12 13 29 19 37 20 30
130 271 130 285 0 8 4 15 10 15 5 0 9 3 8 8 -1 4 4 20 10 35 7 16 12 31 12 35
0 4 8 17 18 30 18 23 18 23 49 -70 18 -51 44 -124 58 -163 15 -38 32 -86 38
-105 6 -19 16 -38 22 -42 5 -4 7 -8 2 -8 -4 0 4 -22 18 -50 14 -27 25 -56 25
-65 0 -8 7 -15 15 -15 8 0 15 8 15 19 0 10 6 37 14 59 8 22 17 54 19 70 3 16
9 38 15 48 5 11 10 24 11 29 1 6 6 25 12 42 6 18 8 37 4 43 -3 5 -2 10 3 10 7
0 29 59 38 103 1 4 3 9 4 12 1 3 3 8 4 13 1 4 14 48 30 97 15 50 29 98 32 108
11 38 31 7 40 -63 2 -14 8 -45 14 -70 6 -25 12 -54 15 -65 19 -94 53 -200 64
-200 7 0 28 29 47 65 20 36 40 69 45 75 5 5 9 17 9 27 0 10 4 18 8 18 5 0 14
12 20 26 7 14 17 22 23 19 10 -7 28 -46 34 -76 2 -9 8 -25 13 -35 5 -11 15
-31 21 -46 6 -16 16 -40 22 -55 23 -56 28 -68 34 -90 4 -13 11 -23 16 -23 6 0
8 -3 5 -8 -2 -4 2 -22 9 -40 10 -22 21 -32 37 -33 13 0 171 -1 351 -2 309 -2
391 2 318 16 -43 8 -54 12 -66 19 -10 6 -67 19 -82 20 -5 0 -14 4 -20 10 -7 6
-13 7 -13 3 0 -4 -6 -3 -12 2 -7 5 -42 18 -78 28 -36 10 -69 22 -73 26 -5 3 4
20 20 36 67 68 119 144 115 166 -1 4 2 7 7 7 6 0 23 49 20 63 0 1 5 16 11 32
7 17 13 65 15 108 2 43 6 81 9 84 3 3 1 12 -5 20 -6 7 -9 13 -6 13 17 0 -55
200 -75 208 -4 2 -8 9 -8 14 0 13 -10 25 -89 104 -62 61 -211 151 -231 139 -6
-3 -10 -2 -10 3 0 11 -170 11 -200 0z m-1000 -248 c3 -14 5 -44 5 -67 -1 -24
1 -44 4 -44 3 -1 30 -3 58 -4 77 -4 80 -6 78 -62 l-1 -48 -63 -1 c-34 -1 -65
-5 -69 -8 -3 -4 -7 -34 -8 -67 -1 -33 -4 -62 -6 -65 -12 -11 -90 -6 -98 7 -5
7 -6 16 -2 19 4 3 7 11 6 18 -1 6 -2 30 -3 52 l-1 41 -52 -2 c-103 -3 -99 -5
-97 52 3 59 11 65 87 63 29 -1 54 2 57 6 3 5 6 34 6 67 1 32 5 60 9 63 5 3 25
5 46 5 32 0 39 -4 44 -25z"/>
<path d="M3493 3254 c-7 -7 -13 -17 -13 -21 0 -5 -11 -25 -25 -44 -13 -20 -21
-39 -18 -43 4 -3 1 -6 -6 -6 -7 0 -17 -13 -22 -30 -6 -16 -15 -30 -20 -30 -5
0 -9 -9 -9 -20 0 -11 -4 -20 -9 -20 -5 0 -14 -13 -21 -30 -13 -31 -28 -39 -34
-17 -2 6 -12 39 -22 72 -9 33 -19 66 -20 73 -1 8 -6 21 -10 30 -4 9 -9 28 -11
42 -9 56 -25 53 -45 -7 -11 -32 -22 -65 -25 -73 -4 -8 -5 -18 -5 -22 1 -5 -3
-8 -8 -8 -5 0 -9 -3 -8 -7 2 -9 -9 -48 -22 -78 -9 -19 -79 -220 -84 -240 -2
-5 -6 -27 -11 -47 -13 -64 -19 -56 -84 100 -17 39 -27 72 -23 72 4 0 2 4 -4 8
-5 4 -28 54 -49 112 -21 58 -48 127 -60 153 l-21 48 -14 -28 c-8 -15 -17 -30
-20 -33 -3 -3 -13 -21 -24 -40 -36 -69 -79 -145 -90 -160 -9 -13 -54 -15 -323
-15 -279 1 -332 -2 -290 -12 87 -21 145 -35 157 -37 8 -1 31 -6 50 -11 19 -5
37 -9 40 -10 33 -6 118 -28 130 -32 19 -8 17 -7 63 -16 33 -7 82 -52 354 -323
174 -172 319 -314 323 -314 14 0 660 651 660 665 0 1 22 25 49 53 27 27 46 54
42 59 -3 5 -67 8 -141 8 -74 -1 -140 1 -147 3 -12 4 -39 70 -35 85 1 4 -3 7
-8 7 -5 0 -10 6 -10 14 0 8 -5 27 -12 43 -6 15 -12 31 -12 35 -1 3 -4 10 -8
14 -5 4 -8 18 -8 31 0 13 -4 23 -9 23 -5 0 -11 9 -13 19 -2 16 -5 17 -15 5z"/>
</g>
</svg>
